<?xml version="1.0" standalone="no"?><!DOCTYPE svg PUBLIC "-//W3C//DTD SVG 1.1//EN" "http://www.w3.org/Graphics/SVG/1.1/DTD/svg11.dtd"><svg t="1503567315473" class="icon" style="" viewBox="0 0 1024 1024" version="1.1" xmlns="http://www.w3.org/2000/svg" p-id="2827" xmlns:xlink="http://www.w3.org/1999/xlink" width="200" height="200"><defs><style type="text/css"></style></defs><path d="M69.597717 277.3611C31.157887 277.3611 0 308.52193 0 346.958818h102.976965V277.3611H69.597717z" fill="#FFB648" p-id="2828"></path><path d="M67.788265 395.793437c-26.97408 0-48.837561-21.863481-48.837561-48.834619H102.976965v48.834619H67.788265z" fill="#ED9900" p-id="2829"></path><path d="M367.707205 78.977448a26.656323 26.656323 0 0 0-37.671916 1.247492L294.584733 118.099868l27.259474-43.426857a28.156844 28.156844 0 0 0 2.612673-5.454837c4.81638-13.910717-2.559713-29.089522-16.47043-33.902959s-29.089522 2.559713-33.900017 16.47043l-15.999678 46.233715 4.907588-43.003181a27.874393 27.874393 0 0 0 0-6.046219 26.650439 26.650439 0 0 0-52.959583 6.043277l6.593468 57.770078-17.685558-51.103055a28.039157 28.039157 0 0 0-2.612672-5.451895c-7.826249-12.466097-24.276084-16.232112-36.742182-8.40292a26.647496 26.647496 0 0 0-8.40292 36.742181l57.458204 91.546522a14.328509 14.328509 0 0 0 16.805841 5.916762 14.269665 14.269665 0 0 0 8.196966-7.284884c0.41485 0.085324 0.814989 0.203012 1.244551 0.253029 4.224998 0.482521 8.18814-0.965041 11.127396-3.592425 2.206649 1.079787 4.563351 1.594672 6.893573 1.48581 0.403081 1.385776 0.985637 2.739187 1.83299 3.998449a14.310856 14.310856 0 0 0 19.859843 3.90724l89.745896-60.238583a26.650439 26.650439 0 0 0 3.357049-41.582098z" fill="#E94F3D" p-id="2830"></path><path d="M492.721241 961.372352h-15.44066v-137.568399h-39.237166v137.568399H384.339456a18.644715 18.644715 0 1 0 0 37.28943h108.381785a18.644715 18.644715 0 1 0 0-37.28943z" fill="#B36F0F" p-id="2831"></path><path d="M492.597669 800.366396c0-19.297883-15.634846-34.941555-34.932729-34.941556s-34.938613 15.643672-34.938613 34.941556v30.410569c0 19.297883 15.64073 34.938613 34.938613 34.938613s34.932729-15.64073 34.932729-34.938613V800.366396z" fill="#DADBDC" p-id="2832"></path><path d="M584.473717 961.372352h-15.44066v-137.568399h-39.237166v137.568399h-53.703959a18.644715 18.644715 0 1 0 0 37.28943h108.381785a18.644715 18.644715 0 1 0 0-37.28943z" fill="#ED9900" p-id="2833"></path><path d="M584.350145 800.366396c0-19.297883-15.634846-34.941555-34.932729-34.941556-19.300825 0-34.938613 15.643672-34.938613 34.941556v30.410569c0 19.297883 15.637788 34.938613 34.938613 34.938613 19.297883 0 34.932729-15.64073 34.932729-34.938613V800.366396z" fill="#DADBDC" p-id="2834"></path><path d="M980.08768 435.980933h-1.479926l13.984272-13.984272c17.150078-17.147136 17.147136-44.953859-0.002943-62.103936-17.150078-17.150078-44.953859-17.150078-62.103936-0.002943l-13.754781 13.754781v-36.109609c0-24.252546-19.662716-43.915262-43.915262-43.915262-24.255489 0-43.918205 19.662716-43.918205 43.915262v98.448921H392.783567V293.61675c0-83.376035-67.591138-150.967173-150.970115-150.967173-83.376035 0-150.967173 67.591138-150.967173 150.967173v142.364183c0 228.061614 184.878959 412.943515 412.943515 412.943515 197.912901 0 363.282138-139.245452 403.546131-325.107106h72.751755c24.249604 0 43.915262-19.662716 43.91232-43.915262 0.002942-24.255489-19.659774-43.918205-43.91232-43.921147z" fill="#DADBDC" p-id="2835"></path><path d="M189.436425 275.398654m-22.743198 0a22.743198 22.743198 0 1 0 45.486397 0 22.743198 22.743198 0 1 0-45.486397 0Z" fill="#333E48" p-id="2836"></path><path d="M721.132976 585.309302c0.779683-1.891834 1.465215-3.827801 2.05954-5.807901l0.170647-0.479579-0.035306-0.050017c1.638805-5.628427 2.559713-11.562842 2.559713-17.720865 0-35.012168-28.380452-63.398504-63.401446-63.401446h-231.656981c-70.968782 0-128.500542 57.531759-128.500542 128.500541 0 70.96584 57.531759 128.497599 128.500542 128.4976h48.619838a256.177267 256.177267 0 0 0 98.204719-19.462647 62.989539 62.989539 0 0 0 31.449165 8.399979c29.277822 0 53.848126-19.862785 61.141837-46.830982 31.34913-3.830743 55.639925-30.492951 55.639926-62.877735 0-12.786797-3.818974-24.673281-10.333003-34.632624a250.840118 250.840118 0 0 0 5.581351-14.134324z" fill="#E8E8E8" p-id="2837"></path><path d="M61.294832 463.208043l9.535667-66.161229a11.177414 11.177414 0 0 1 12.654398-9.467997 11.198009 11.198009 0 0 1 9.467996 9.467997l9.532725 66.161229a20.810174 20.810174 0 0 1-41.190786 5.937357 21.572203 21.572203 0 0 1 0-5.937357z" fill="#E94F3D" p-id="2838"></path></svg>