<?xml version="1.0" standalone="no"?><!DOCTYPE svg PUBLIC "-//W3C//DTD SVG 1.1//EN" "http://www.w3.org/Graphics/SVG/1.1/DTD/svg11.dtd"><svg t="1503567335089" class="icon" style="" viewBox="0 0 1024 1024" version="1.1" xmlns="http://www.w3.org/2000/svg" p-id="3420" xmlns:xlink="http://www.w3.org/1999/xlink" width="200" height="200"><defs><style type="text/css"></style></defs><path d="M520.634447 989.803664c0 16.300997 13.209104 29.507413 29.510102 29.507413h148.392043a18.096984 18.096984 0 0 0 18.096984-18.094295c0-34.750188-28.173866-62.918678-62.921367-62.918678h-49.954236V659.554543c0-88.403942-71.664702-160.068643-160.065955-160.068644-88.403942 0-160.071332 71.664702-160.071332 160.068644s71.66739 160.068643 160.071332 160.068643c42.496052 0 76.942429 34.451753 76.942429 76.945117v93.235361zM913.17849 582.617491h-113.434831v-87.043508c0-22.957977-18.60513-41.55773-41.555042-41.557731s-41.552353 18.599753-41.552353 41.557731v128.601238c0 22.947223 18.602441 41.546976 41.552353 41.546976h154.989873c22.947223 0 41.552353-18.599753 41.552353-41.546976 0-22.957977-18.602441-41.55773-41.552353-41.55773z" fill="#65513C" p-id="3421"></path><path d="M1024 141.237671c0-21.9148-17.760909-39.678397-39.683774-39.678397H702.910948c-38.869128 0-70.382238 31.510422-70.382239 70.376861v145.421137c0 34.196336-27.722181 61.918517-61.918517 61.918517h-83.647804c-112.30293 0-203.341702 91.038772-203.341702 203.336325v256.239958c0 49.142278-39.837024 88.987368-88.984679 88.987368H45.738507C20.479086 927.83944 0 948.315837 0 973.577947c0 25.254044 20.479086 45.73313 45.738507 45.73313h258.982333c55.14055 0 99.841257-44.698018 99.841256-99.841257V768.510162a202.543187 202.543187 0 0 0 82.400292 17.446343h89.108356c123.30738 0 223.272313-99.959555 223.272313-223.266936v-183.41378c0-43.805402 35.511063-79.316465 79.316465-79.316465l-0.217777-0.586115c81.488856-6.69462 145.558255-74.909845 145.558255-158.135538z" fill="#BF9B5F" p-id="3422"></path><path d="M748.289182 78.294796c0-40.651671-36.806969-73.605873-36.806969-73.605873s-36.793526 32.954202-36.793526 73.605873c0 40.646294 36.793526 73.600496 36.793526 73.600496s36.806969-32.954202 36.806969-73.600496z" fill="#BF9B5F" p-id="3423"></path><path d="M733.526066 78.294796c0-24.347985-22.043853-44.074262-22.043853-44.074262s-22.03041 19.726277-22.03041 44.074262c0 24.337231 22.03041 44.066196 22.03041 44.066196s22.043853-19.728966 22.043853-44.066196z" fill="#FF9C9F" p-id="3424"></path><path d="M847.555078 162.359333c0-10.668375-8.646546-19.314921-19.320298-19.314921s-19.320298 8.646546-19.320298 19.314921a19.320298 19.320298 0 0 0 38.640596 0z" fill="#333E48" p-id="3425"></path><path d="M463.474756 989.803664c0 16.300997 13.211793 29.507413 29.512791 29.507413h148.392042a18.094295 18.094295 0 0 0 18.094296-18.094295c0-34.750188-28.173866-62.918678-62.915989-62.918678h-49.956925V659.554543c0-88.403942-71.66739-160.068643-160.071332-160.068644-88.398564 0-160.065955 71.664702-160.065955 160.068644s71.66739 160.068643 160.065955 160.068643c42.498741 0 76.945117 34.451753 76.945117 76.945117v93.235361zM856.021488 582.617491h-113.434832v-87.043508c0-22.957977-18.60513-41.55773-41.55773-41.557731-22.947223 0-41.552353 18.599753-41.552353 41.557731v128.601238c0 22.947223 18.60513 41.546976 41.552353 41.546976h154.992562c22.9526 0 41.552353-18.599753 41.552353-41.546976 0-22.957977-18.599753-41.55773-41.552353-41.55773z" fill="#9C7F4D" p-id="3426"></path></svg>