<?xml version="1.0" standalone="no"?><!DOCTYPE svg PUBLIC "-//W3C//DTD SVG 1.1//EN" "http://www.w3.org/Graphics/SVG/1.1/DTD/svg11.dtd"><svg t="1503567351333" class="icon" style="" viewBox="0 0 1024 1024" version="1.1" xmlns="http://www.w3.org/2000/svg" p-id="3981" xmlns:xlink="http://www.w3.org/1999/xlink" width="200" height="200"><defs><style type="text/css"></style></defs><path d="M652.72831 976.735447h-59.894194V571.527117h126.208087z" fill="#4D3D2D" p-id="3982"></path><path d="M592.834116 942.456571v34.278876h59.894194l5.611027-34.278876z" fill="#333E48" p-id="3983"></path><path d="M161.555073 592.955555v41.27265c0 29.907077-24.246371 54.153448-54.153448 54.153448v288.353794h49.68505l33.641322-195.265394c52.519544-14.688581 91.051539-62.861166 91.051539-120.064385v-68.447353h-120.224463v-0.00276z" fill="#4D3D2D" p-id="3984"></path><path d="M107.401625 942.456571v34.278876h49.68505l5.909104-34.278876z" fill="#333E48" p-id="3985"></path><path d="M597.109315 454.073668h134.672927v84.678759h-134.672927z" fill="#65513C" p-id="3986"></path><path d="M733.592785 261.28121c0.248398-0.168358 0.510595-0.311877 0.764513-0.471955l83.036575-51.186477V81.692468c0-19.01622 15.411694-34.433434 34.436195-34.433435 19.01898 0 34.430675 15.417214 34.430674 34.433435 0-19.01622 15.417214-34.433434 34.436195-34.433435s34.436194 15.417214 34.436194 34.433435c0-19.01622 15.411694-34.433434 34.430675-34.433435s34.436194 15.417214 34.436194 34.433435v134.131972c0 48.992297-39.718785 88.708321-88.708321 88.708321h-189.080293l-0.01104-0.033119c-12.748319-0.361557-22.985063-10.788738-22.985063-23.630897a23.619857 23.619857 0 0 1 10.377502-19.587535z" fill="#FADF8D" p-id="3987"></path><path d="M961.679789 313.566156L861.912252 252.576252a105.704241 105.704241 0 0 0-19.686894-12.033486l-0.038639-0.02208-0.00552 0.00552a105.320604 105.320604 0 0 0-44.844056-9.974545h-63.087484c-53.107418 0-100.253292 25.488359-129.895412 64.892506a162.984739 162.984739 0 0 0-35.032349-3.830844c-64.955986 0-120.986216 38.13456-146.98517 93.229159H216.613792a161.679272 161.679272 0 0 0-91.785692 28.422211c-12.279124-5.693826-34.629393-1.531786-55.991591 11.575331-26.683428 16.377685-41.675606 40.469497-33.486763 53.813971 4.796835 7.819006 16.510164 10.167744 30.737829 7.512649a162.013228 162.013228 0 0 0-11.934127 61.133422v86.930899c0 29.907077-24.246371 54.153448-54.153448 54.153448v288.353794h49.68505l33.646842-195.265394c36.768372-10.283663 66.65889-36.99193 81.295032-71.712402h326.626352v266.977796h59.894194l44.267221-270.491243c55.362317-11.390412 100.926726-49.552572 122.644961-100.344372l9.665429 21.580236 31.458182-70.210976 19.675854 43.916705 37.761963-84.270283 27.481061 61.34042 49.538771-110.559035 3.127051 0.742433 0.00552-0.00552a84.322723 84.322723 0 0 0 24.376089 3.590726c46.613199 0 84.405522-37.789563 84.405522-84.408282 0.00276-31.930138-17.732832-59.712036-43.875305-74.05286z" fill="#65513C" p-id="3988"></path><path d="M491.253276 942.456571v34.278876h59.894194l5.613787-34.278876zM0 942.456571v34.278876h49.68505l5.909104-34.278876z" fill="#333E48" p-id="3989"></path><path d="M825.328798 301.190433m-15.259896 0a15.259896 15.259896 0 1 0 30.519792 0 15.259896 15.259896 0 1 0-30.519792 0Z" fill="#333E48" p-id="3990"></path><path d="M732.836552 261.28121c-0.248398-0.168358-0.507835-0.311877-0.764512-0.471955l-83.031055-51.186477V81.692468c0-19.01622-15.417214-34.433434-34.436195-34.433435s-34.436194 15.417214-34.436194 34.433435c0-19.01622-15.411694-34.433434-34.430675-34.433435s-34.436194 15.417214-34.436194 34.433435c0-19.01622-15.417214-34.433434-34.436195-34.433435s-34.430675 15.417214-34.430674 34.433435v134.131972c0 48.992297 39.713265 88.708321 88.708321 88.708321h189.080293l0.00552-0.033119c12.748319-0.361557 22.990583-10.788738 22.990582-23.630897a23.611577 23.611577 0 0 0-10.383022-19.587535z" fill="#FADF8D" p-id="3991"></path></svg>