<?xml version="1.0" standalone="no"?><!DOCTYPE svg PUBLIC "-//W3C//DTD SVG 1.1//EN" "http://www.w3.org/Graphics/SVG/1.1/DTD/svg11.dtd"><svg t="1503567366735" class="icon" style="" viewBox="0 0 1024 1024" version="1.1" xmlns="http://www.w3.org/2000/svg" p-id="4540" xmlns:xlink="http://www.w3.org/1999/xlink" width="200" height="200"><defs><style type="text/css"></style></defs><path d="M558.220255 989.555624h-49.606533v-176.200623h-36.243507v193.425529c0 9.512018 7.71017 17.21947 17.222188 17.21947H558.220255a17.222188 17.222188 0 1 0 0-34.444376z" fill="#B36F0F" p-id="4541"></path><path d="M458.221767 791.70293c0-17.825522 14.441961-32.275636 32.267484-32.275636s32.270201 14.450114 32.2702 32.275636v28.090348c0 17.825522-14.444679 32.272918-32.2702 32.272919s-32.267483-14.447397-32.267484-32.272919v-28.090348z" fill="#DADBDC" p-id="4542"></path><path d="M473.462738 989.555624H423.856205v-176.200623h-36.243507v193.425529c0 9.512018 7.71017 17.21947 17.222189 17.21947h68.627851a17.222188 17.222188 0 1 0 0-34.444376z" fill="#ED9900" p-id="4543"></path><path d="M373.464251 791.70293c0-17.825522 14.441961-32.275636 32.267483-32.275636 17.82824 0 32.272918 14.450114 32.272919 32.275636v28.090348c0 17.825522-14.444679 32.272918-32.272919 32.272919-17.825522 0-32.267483-14.447397-32.267483-32.272919v-28.090348z" fill="#DADBDC" p-id="4544"></path><path d="M745.873347 481.643753l0.016307-0.021742-160.049217-160.051934a181.665957 181.665957 0 0 0 17.431453-15.259994c70.070961-70.070961 70.070961-183.682505-0.002718-253.758901-70.070961-70.068243-183.679787-70.068243-253.750747 0.002718-70.073678 70.073678-70.070961 183.677069 0 253.753465l120.196578 120.196578H48.340755v83.436705c0 167.571864 135.839771 303.414353 303.414353 303.414353h258.928003c106.828116 0 193.425529-86.60013 193.425529-193.425529 0-54.199479-22.32063-103.167348-58.235293-138.285719z" fill="#DADBDC" p-id="4545"></path><path d="M504.621392 117.314437m-23.09518 0a23.09518 23.09518 0 1 0 46.19036 0 23.09518 23.09518 0 1 0-46.19036 0Z" fill="#333E48" p-id="4546"></path><path d="M492.986835 735.114575c67.763617 0.002718 122.694162-54.927828 122.686009-122.686009 0-67.760899-54.930546-122.691445-122.688727-122.683291l-356.572945-0.005436c0 135.513645 109.855656 245.374736 245.366583 245.374736h111.20908z" fill="#E8E8E8" p-id="4547"></path><path d="M185.025737 489.742557H136.411172c0 135.513645 109.855656 245.374736 245.366583 245.374736h48.576517c-135.494621-0.021742-245.328535-109.87468-245.328535-245.374736z" fill="#333E48" p-id="4548"></path><path d="M444.638606 222.780975l206.049335 206.043901h-0.005435c34.452529 34.455247 82.045233 55.75945 134.608644 55.756732 105.134977 0 190.365377-85.222247 190.365377-190.357224V222.780975H444.638606z" fill="#ED9900" p-id="4549"></path><path d="M444.638606 222.780975c0-32.680576 26.489611-59.16747 59.164752-59.16747h412.685699c32.677859 0 59.170188 26.486894 59.170188 59.16747H444.638606z" fill="#FFB648" p-id="4550"></path></svg>