<?xml version="1.0" standalone="no"?><!DOCTYPE svg PUBLIC "-//W3C//DTD SVG 1.1//EN" "http://www.w3.org/Graphics/SVG/1.1/DTD/svg11.dtd"><svg t="1503567388361" class="icon" style="" viewBox="0 0 1024 1024" version="1.1" xmlns="http://www.w3.org/2000/svg" p-id="5108" xmlns:xlink="http://www.w3.org/1999/xlink" width="200" height="200"><defs><style type="text/css"></style></defs><path d="M734.407982 846.59925c-86.196631 0-156.074482-69.877851-156.074481-156.074482V514.423067c0-43.098315 34.937558-78.038608 78.035873-78.038609 43.10105 0 78.038608 34.937558 78.038608 78.038609v332.176183z" fill="#826940" p-id="5109"></path><path d="M706.334868 903.371756c15.503798 0 28.075849-12.572051 28.075849-28.075849V794.142318a14.037925 14.037925 0 0 0-28.075849 0v109.229438zM668.927751 903.371756c15.506533 0 28.075849-12.572051 28.075849-28.075849V794.142318a14.03519 14.03519 0 0 0-14.03519-14.035189 14.03519 14.03519 0 0 0-14.040659 14.035189v109.229438zM631.517899 903.371756c15.506533 0 28.078584-12.572051 28.078584-28.075849V794.142318a14.03519 14.03519 0 0 0-14.03519-14.035189 14.037925 14.037925 0 0 0-14.043394 14.035189v109.229438z" fill="#BFAB6C" p-id="5110"></path><path d="M414.240473 846.59925c-86.199365 0-156.074482-69.877851-156.074481-156.074482V514.423067c0-43.098315 34.937558-78.038608 78.035873-78.038609s78.038608 34.937558 78.038608 78.038609v332.176183z" fill="#826940" p-id="5111"></path><path d="M386.167359 903.371756c15.503798 0 28.075849-12.572051 28.075849-28.075849V794.142318a14.03519 14.03519 0 1 0-28.073114 0v109.229438h-0.002735zM348.760242 903.371756c15.503798 0 28.075849-12.572051 28.075849-28.075849V794.142318a14.037925 14.037925 0 1 0-28.075849 0v109.229438zM311.353125 903.371756c15.506533 0 28.078584-12.572051 28.078584-28.075849V794.142318a14.037925 14.037925 0 0 0-14.037924-14.035189 14.037925 14.037925 0 0 0-14.04066 14.035189v109.229438z" fill="#BFAB6C" p-id="5112"></path><path d="M982.761375 558.839574H0v126.543699h788.680847l113.92789 113.933359a22.956232 22.956232 0 0 0 16.288696 6.744111 23.035542 23.035542 0 0 0 16.285961-39.318769l-81.355967-81.358701h128.933948v-126.543699z" fill="#65513C" p-id="5113"></path><path d="M900.814683 732.370528c-34.021387 34.018652-34.021387 89.1694 0 123.185317 34.015918 34.018652 89.16393 34.018652 123.185317 0l-123.185317-123.185317z" fill="#05CE7C" p-id="5114"></path><path d="M731.197282 205.159358H105.575694c-20.284295 0-36.728877 16.441847-36.728877 36.726142 0 18.233166 13.302253 33.321269 30.720438 36.192849-21.233284 29.177989-33.788926 65.07274-33.788926 103.921117 0 52.353008 22.767528 99.375816 58.919354 131.753565-0.002735 0.224257-0.016409 0.448513-0.016409 0.67277v332.176184c86.196631 0 156.074482-69.877851 156.074481-156.074482v-131.685194h164.090293v287.759676c86.199365 0 156.074482-69.877851 156.074481-156.074482v-131.685194h130.279488c97.666542 0 176.840108-79.173566 176.840108-176.842843-0.002735-97.666542-79.176301-176.840108-176.842843-176.840108z" fill="#9C7F4D" p-id="5115"></path><path d="M472.919162 903.371756c-15.506533 0-28.075849-12.572051-28.075849-28.075849V794.142318a14.03519 14.03519 0 1 1 28.073114 0v109.229438h0.002735zM510.326279 903.371756c-15.506533 0-28.075849-12.572051-28.075849-28.075849V794.142318a14.03519 14.03519 0 0 1 14.037925-14.035189 14.03519 14.03519 0 0 1 14.037924 14.035189v109.229438zM547.730661 903.371756c-15.503798 0-28.075849-12.572051-28.075849-28.075849V794.142318a14.037925 14.037925 0 1 1 28.075849 0v109.229438z" fill="#FADF8D" p-id="5116"></path><path d="M152.754388 903.371756c-15.506533 0-28.075849-12.572051-28.075849-28.075849V794.142318a14.03519 14.03519 0 1 1 28.073114 0l0.002735 109.229438zM190.161505 903.371756c-15.503798 0-28.075849-12.572051-28.075849-28.075849V794.142318a14.03519 14.03519 0 0 1 14.037925-14.035189 14.03519 14.03519 0 0 1 14.037924 14.035189v109.229438zM227.568622 903.371756c-15.506533 0-28.078584-12.572051-28.078584-28.075849V794.142318a14.037925 14.037925 0 0 1 28.075849 0l0.002735 109.229438z" fill="#FADF8D" p-id="5117"></path><path d="M731.197282 339.735276m-219.107032 0a219.107033 219.107033 0 1 0 438.214065 0 219.107033 219.107033 0 1 0-438.214065 0Z" fill="#967A4A" p-id="5118"></path><path d="M868.817076 315.944919c0-76.003889-61.61317-137.617059-137.617059-137.617059s-137.617059 61.61317-137.617058 137.617059a137.157606 137.157606 0 0 0 11.344108 54.743256l-0.008204 0.021879 0.224257 0.456718a137.288878 137.288878 0 0 0 5.65291 11.428889l30.487977 61.640518 0.008204-0.002735c15.946842 33.63851 50.203425 56.909248 89.907806 56.909248s73.960964-23.270738 89.907806-56.909248l0.00547 0.00547 30.50165-61.667867a137.398271 137.398271 0 0 0 5.611888-11.344109l0.257075-0.514149-0.010939-0.027349a137.17128 137.17128 0 0 0 11.344109-54.740521z" fill="#9C7F4D" p-id="5119"></path><path d="M672.986251 308.476076c-8.404158-30.233636-39.72079-47.930774-69.954426-39.532087l-85.849307 23.853259a219.878257 219.878257 0 0 0-5.092268 46.938028 218.746034 218.746034 0 0 0 11.248389 69.284391l110.107321-30.5919c30.236371-8.398688 47.933509-39.718055 39.540291-69.951691z" fill="#333E48" p-id="5120"></path><path d="M624.973431 316.847415m-20.984413 0a20.984414 20.984414 0 1 0 41.968827 0 20.984414 20.984414 0 1 0-41.968827 0Z" fill="#5C6670" p-id="5121"></path><path d="M789.411048 308.476076c8.404158-30.233636 39.72079-47.930774 69.951692-39.532087l85.846571 23.853259a218.819875 218.819875 0 0 1-6.150651 116.222419l-110.112791-30.5919c-30.228167-8.398688-47.930774-39.718055-39.534821-69.951691z" fill="#333E48" p-id="5122"></path><path d="M837.423868 316.847415m-20.984414 0a20.984414 20.984414 0 1 0 41.968827 0 20.984414 20.984414 0 1 0-41.968827 0Z" fill="#5C6670" p-id="5123"></path><path d="M751.150662 401.400408c-9.328533 9.678592-24.878823 9.952076-34.546476 0.615339l-10.786202-10.414264c-9.673123-9.336738-6.582756-16.975141 6.858974-16.975141h39.857532c13.44173 0 16.805581 7.917357 7.471578 17.593214l-8.855406 9.180852z" fill="#333E48" p-id="5124"></path></svg>