<?xml version="1.0" standalone="no"?><!DOCTYPE svg PUBLIC "-//W3C//DTD SVG 1.1//EN" "http://www.w3.org/Graphics/SVG/1.1/DTD/svg11.dtd"><svg t="1503567384214" class="icon" style="" viewBox="0 0 1024 1024" version="1.1" xmlns="http://www.w3.org/2000/svg" p-id="4963" xmlns:xlink="http://www.w3.org/1999/xlink" width="200" height="200"><defs><style type="text/css"></style></defs><path d="M298.64555 755.17454h52.13137v96.416858h-52.13137z" fill="#5C6670" p-id="4964"></path><path d="M298.64555 851.591398h52.13137v20.716763h-52.13137z" fill="#2D3740" p-id="4965"></path><path d="M249.545435 617.068365c0-41.512415 33.65458-75.162214 75.166995-75.162214s75.162214 33.649799 75.162214 75.162214v89.00606c0 41.512415-33.649799 75.162214-75.162214 75.162214s-75.166995-33.649799-75.166995-75.162214v-89.00606z" fill="#C8C9C9" p-id="4966"></path><path d="M670.533678 755.17454h52.13137v96.416858H670.533678z" fill="#5C6670" p-id="4967"></path><path d="M670.533678 851.591398h52.13137v20.716763H670.533678z" fill="#2D3740" p-id="4968"></path><path d="M621.433563 617.068365c0-41.512415 33.65458-75.162214 75.166995-75.162214s75.162214 33.649799 75.162214 75.162214v89.00606c0 41.512415-33.649799 75.162214-75.162214 75.162214s-75.166995-33.649799-75.166995-75.162214v-89.00606z" fill="#C8C9C9" p-id="4969"></path><path d="M204.076611 755.17454h52.131369v96.416858H204.076611z" fill="#7D868C" p-id="4970"></path><path d="M204.076611 851.591398h52.131369v20.716763H204.076611z" fill="#333E48" p-id="4971"></path><path d="M154.976496 617.068365c0-41.512415 33.652189-75.162214 75.164604-75.162214s75.164604 33.649799 75.164605 75.162214v89.00606c0 41.512415-33.652189 75.162214-75.164605 75.162214s-75.164604-33.649799-75.164604-75.162214v-89.00606z" fill="#DADBDC" p-id="4972"></path><path d="M575.96713 755.17454h52.131369v96.416858h-52.131369z" fill="#7D868C" p-id="4973"></path><path d="M575.96713 851.591398h52.131369v20.716763h-52.131369z" fill="#333E48" p-id="4974"></path><path d="M526.867015 617.068365c0-41.512415 33.652189-75.162214 75.164604-75.162214s75.164604 33.649799 75.164605 75.162214v89.00606c0 41.512415-33.652189 75.162214-75.164605 75.162214s-75.164604-33.649799-75.164604-75.162214v-89.00606z" fill="#DADBDC" p-id="4975"></path><path d="M867.813871 513.905292c0-19.320665-8.194907-36.716912-21.285721-48.937555-1.969838-88.30323-49.348735-165.394642-119.708275-208.862551 0.492459-3.267922 0.748251-6.612343 0.748252-10.01892 0-36.965533-29.968306-66.936229-66.93623-66.936229-5.81628 0-11.458048 0.748251-16.836852 2.139569-12.261283-13.834284-30.157162-22.564681-50.099377-22.564681-21.285721 0-40.238236 9.944811-52.497128 25.433376-20.296021-20.068916-48.186913-32.464071-78.984751-32.464071a111.824143 111.824143 0 0 0-65.795923 21.304846c-12.218252-13.100376-29.621672-21.304846-48.951899-21.304846-30.008946 0-55.404073 19.750969-63.900193 46.958155a111.879126 111.879126 0 0 0-53.422283-13.49004c-41.072548 0-76.981445 22.043535-96.574636 54.942691a40.795241 40.795241 0 0 0-21.821211-6.325474c-4.958062 0-9.689019 0.925154-14.087685 2.536405-5.887998-8.591743-15.765873-14.235902-26.965738-14.235901a32.602725 32.602725 0 0 0-25.251693 11.940945 42.138747 42.138747 0 0 0-4.384323-0.241449C18.381167 233.777172 0 252.158339 0 274.832986s18.381167 41.055814 41.055814 41.055815c6.122274 0 11.902696-1.381755 17.111769-3.796241a66.596767 66.596767 0 0 0-7.527935 30.018509c-24.838122 20.609187-40.661369 51.705847-40.661369 86.503123 0 29.705342 11.551281 56.702158 30.377096 76.792589a111.981921 111.981921 0 0 0-8.861879 43.809763c0 57.526908 43.250367 104.929711 98.998683 111.539664 44.290269 38.612642 102.194888 62.006854 165.569154 62.006854h2.340378c8.295311 3.683883 17.472746 5.746953 27.133078 5.746953s18.837767-2.06307 27.133079-5.746953h21.421984c21.548685 20.095212 50.450792 32.413869 82.235939 32.413869 31.792318 0 60.689645-12.316266 82.23833-32.413869h55.965859c39.317863 0 76.532016-9.007704 109.696527-25.062837a112.878389 112.878389 0 0 0 24.484317 2.708527c62.052275 0 112.357242-50.304967 112.357242-112.357242 0-6.621906-0.607207-13.093205-1.704483-19.394773 17.202611-12.113067 28.450288-32.117437 28.450288-54.751445z" fill="#DADBDC" p-id="4976"></path><path d="M923.590875 222.254578c55.454275 0 100.409125 44.95485 100.409125 100.413907 0 55.449494-44.95485 100.404344-100.409125 100.404344h-118.890697c-55.451885 0-100.406735-44.95485-100.406734-100.404344 0-55.459057 44.95485-100.413906 100.406734-100.413907h118.890697z" fill="#5C6670" p-id="4977"></path><path d="M877.37858 297.514806m-15.50769 0a15.50769 15.50769 0 1 0 31.01538 0 15.50769 15.50769 0 1 0-31.01538 0Z" fill="#333E48" p-id="4978"></path><path d="M845.045991 168.368523a47.694454 47.694454 0 0 0-33.829093 14.015968c-12.199128-16.420891-31.737335-27.066142-53.766526-27.066142-36.967923 0-66.936229 29.970697-66.936229 66.936229 0 0.368149 0.023906 0.729127 0.028687 1.092495-54.708415 7.559013-96.847162 54.478919-96.847162 111.264747 0 62.052275 50.304967 112.357242 112.357242 112.357243 9.430837 0 18.584366-1.176165 27.338669-3.365937 7.690495 16.131631 24.097043 27.309982 43.157134 27.309982 26.423077 0 47.840279-21.421984 47.840279-47.840279 0-15.216039-7.128708-28.74672-18.204264-37.505804a111.814581 111.814581 0 0 0 12.227815-50.952814c0-22.500135-6.63864-43.436832-18.029751-61.009983a67.180069 67.180069 0 0 0 15.83759-19.282415c8.025176 6.079244 17.989112 9.729659 28.83039 9.729659 26.420686 0 47.840279-21.421984 47.840279-47.840279S871.466677 168.368523 845.045991 168.368523z" fill="#DADBDC" p-id="4979"></path><path d="M760.237788 308.136151l10.360772 47.806811a22.017238 22.017238 0 1 1-43.030433 9.323261 22.399731 22.399731 0 0 1 0-9.323261l10.360772-47.806811a11.412627 11.412627 0 0 1 22.308889 0z" fill="#5C6670" p-id="4980"></path></svg>