<?xml version="1.0" standalone="no"?><!DOCTYPE svg PUBLIC "-//W3C//DTD SVG 1.1//EN" "http://www.w3.org/Graphics/SVG/1.1/DTD/svg11.dtd"><svg t="1503567377772" class="icon" style="" viewBox="0 0 1024 1024" version="1.1" xmlns="http://www.w3.org/2000/svg" p-id="4814" xmlns:xlink="http://www.w3.org/1999/xlink" width="200" height="200"><defs><style type="text/css"></style></defs><path d="M251.67735 921.597862c41.389627 41.389627 108.481332 41.389627 149.86827 0 41.384247-41.384247 41.384247-108.484022-0.00538-149.86558l-215.144287-215.144286c-82.765804 82.763114-82.768494 216.954595 0 299.728469l65.281397 65.281397z" fill="#333E48" p-id="4815"></path><path d="M345.549788 754.611013c-74.386738 0-134.691804 60.305066-134.691804 134.689113a134.067745 134.067745 0 0 0 16.360025 64.377588h-14.202718c-19.415762 0-35.157108 15.744036-35.157108 35.157108v19.289336a15.870462 15.870462 0 0 0 15.870462 15.870462h151.821143c74.389428 0 134.694494-60.305066 134.694494-134.694494 0-74.384048-60.302376-134.689114-134.694494-134.689113z" fill="#2D3740" p-id="4816"></path><path d="M226.211983 953.677714H213.015291c-19.415762 0-35.157108 15.744036-35.157108 35.157108v19.289336a15.870462 15.870462 0 0 0 15.870462 15.870462h68.345203c0.029589-0.89574 0.067248-1.788789 0.067247-2.692599 0-28.141826-14.251137-52.958925-35.929112-67.624307z" fill="#DADBDC" p-id="4817"></path><path d="M731.990157 754.611013c74.386738 0 134.691804 60.305066 134.691804 134.689113a134.067745 134.067745 0 0 1-16.360025 64.377588h14.202718c19.415762 0 35.157108 15.744036 35.157108 35.157108v19.289336a15.870462 15.870462 0 0 1-15.870462 15.870462h-151.821143c-74.389428 0-134.694494-60.305066-134.694494-134.694494 0-74.384048 60.305066-134.689114 134.694494-134.689113z" fill="#2D3740" p-id="4818"></path><path d="M851.327961 953.677714h13.196693c19.415762 0 35.157108 15.744036 35.157108 35.157108v19.289336a15.870462 15.870462 0 0 1-15.870462 15.870462h-68.345203c-0.029589-0.89574-0.067248-1.788789-0.067247-2.692599 0.00269-28.141826 14.253827-52.958925 35.929111-67.624307z" fill="#DADBDC" p-id="4819"></path><path d="M415.210356 1023.99731h246.702297c54.817652 0 99.679951-44.856919 99.679951-99.679951V606.157635c0-123.176304-99.854795-223.028409-223.033789-223.028409-123.176304 0-223.031099 99.852105-223.031099 223.028409v318.159724c0.00269 54.823031 44.859609 99.679951 99.68264 99.679951z" fill="#333E48" p-id="4820"></path><path d="M538.771317 613.062631c-65.752131 0-119.055364 53.303233-119.055363 119.055364v291.879315h238.110727V732.117995c0-65.749441-53.303233-119.055364-119.055364-119.055364z" fill="#FFFFFF" p-id="4821"></path><path d="M681.694242 16.806685c22.102981-22.280515 58.085891-22.42846 80.369096-0.325479a56.657549 56.657549 0 0 1 16.80924 40.11461l0.00269 0.00269 1.094793 268.735339-143.439388 0.583711c-42.653884 0.172154-77.372537-34.261369-77.544691-76.915253l-0.441145-108.040187 123.149405-124.155431z" fill="#333E48" p-id="4822"></path><path d="M736.821233 298.612291l-0.930708-228.389397a16.429963 16.429963 0 0 0-4.879495-11.633856c-4.215087-4.180118-9.124171-4.788038-11.674204-4.777278s-7.451047 0.659028-11.633856 4.874115L596.327296 170.970738l0.371208 91.330474c0.083387 20.338401 16.696264 36.814092 37.031974 36.730705l103.090755-0.419626z" fill="#FF9C9F" p-id="4823"></path><path d="M393.255321 17.982175c-22.283205-22.100291-58.266115-21.952346-80.366406 0.328169a56.676379 56.676379 0 0 0-16.483761 40.251795l-0.00269 0.00269 1.094793 268.73534 143.439387-0.5864c42.653884-0.172154 77.090097-34.890807 76.915253-77.542002l-0.438456-108.042877-124.15812-123.146715z" fill="#333E48" p-id="4824"></path><path d="M340.425512 300.226237l-0.930709-228.386708a16.443413 16.443413 0 0 1 4.782658-11.676894 16.408444 16.408444 0 0 1 11.633856-4.871425 16.429963 16.429963 0 0 1 11.674204 4.777278l112.290243 111.378364 0.371207 91.327784c0.083387 20.338401-16.394994 36.948587-36.730704 37.031975l-103.090755 0.419626z" fill="#FF9C9F" p-id="4825"></path><path d="M779.970061 325.333845c-0.543362-133.233873-108.987035-240.800637-242.218219-240.254585-132.768519 0.537982-240.036703 108.239241-240.243826 240.838296h-0.010759v56.227163h0.016139c-0.00269 0.656338-0.018829 1.307296-0.016139 1.963634 0.543362 133.231183 108.987035 240.797947 242.218218 240.254585 133.233873-0.540672 240.797947-108.989725 240.254586-242.220908v-56.227164h-0.00538l0.00538-0.581021z" fill="#333E48" p-id="4826"></path><path d="M724.81348 290.526425c-0.252851-62.037367-50.74782-112.120779-112.785186-111.867927a111.80068 111.80068 0 0 0-46.955048 10.501404l-0.086077-21.271799c-0.059178-14.853676-12.153008-26.85067-27.009375-26.788802-14.856366 0.056488-26.85067 12.153008-26.788802 27.006685l0.086078 21.271798a111.841028 111.841028 0 0 0-47.041126-10.119437c-62.034677 0.252851-112.120779 50.74782-111.867927 112.785187l0.150635 37.112672c0.112976 27.74103 10.296971 53.077281 27.044343 72.606018l105.573541 123.442606c12.505386 16.421893 32.286975 26.993235 54.519072 26.901778 22.232096-0.088767 41.927609-10.818813 54.298499-27.342923l104.567515-124.300687h-0.00269c16.588668-19.665923 26.562849-45.082872 26.449873-72.823901l-0.153325-37.112672z" fill="#FFFFFF" p-id="4827"></path><path d="M538.561505 422.340027a73.472169 73.472169 0 0 1-34.968815 16.298157v32.816888c0 19.313545 15.655269 34.968815 34.968815 34.968814s34.968815-15.655269 34.968814-34.968814v-32.816888a73.46141 73.46141 0 0 1-34.968814-16.298157z" fill="#FF9C9F" p-id="4828"></path><path d="M423.304292 292.573446m-20.994738 0a20.994738 20.994738 0 1 0 41.989476 0 20.994738 20.994738 0 1 0-41.989476 0Z" fill="#0075C9" p-id="4829"></path><path d="M653.880585 291.637358m-20.994738 0a20.994738 20.994738 0 1 0 41.989476 0 20.994738 20.994738 0 1 0-41.989476 0Z" fill="#0075C9" p-id="4830"></path><path d="M561.944882 359.853445c-11.641925 12.174527-31.119555 12.596843-43.280633 0.952228l-13.57059-12.99226c-12.166458-11.649995-8.336027-21.23952 8.508182-21.306767l49.935467-0.204433c16.844209-0.067248 21.096955 9.839686 9.452339 22.006144l-11.044765 11.545088z" fill="#333E48" p-id="4831"></path><path d="M480.244282 703.561923c0-32.531757-26.374556-58.903623-58.903624-58.903623-32.531757 0-58.903623 26.374556-58.903623 58.903623v250.115791h-48.827224c-19.418452 0-35.154418 15.744036-35.154419 35.157108v19.289336c0 8.766413 7.101359 15.870462 15.867772 15.870462h150.769389c19.415762 0 35.154418-15.741346 35.154418-35.159798V703.561923h-0.002689z" fill="#2D3740" p-id="4832"></path><path d="M362.437035 889.305506v64.374898h-48.827224c-19.418452 0-35.154418 15.744036-35.154419 35.157108v19.289336c0 8.766413 7.101359 15.870462 15.867772 15.870462h150.769389c19.415762 0 35.154418-15.741346 35.154418-35.159798v-99.532006h-117.809936z" fill="#DADBDC" p-id="4833"></path><path d="M597.295663 703.561923c0-32.531757 26.374556-58.903623 58.903624-58.903623 32.531757 0 58.903623 26.374556 58.903623 58.903623v250.115791h48.827224c19.418452 0 35.154418 15.744036 35.154419 35.157108v19.289336c0 8.766413-7.101359 15.870462-15.867772 15.870462h-150.769389c-19.415762 0-35.154418-15.741346-35.154419-35.159798l0.00269-285.272899z" fill="#2D3740" p-id="4834"></path><path d="M715.1056 889.305506v64.374898h48.827224c19.418452 0 35.154418 15.744036 35.154418 35.157108v19.289336c0 8.766413-7.101359 15.870462-15.867772 15.870462h-150.769388c-19.415762 0-35.154418-15.741346-35.154419-35.159798v-99.532006h117.809937z" fill="#DADBDC" p-id="4835"></path></svg>