<?xml version="1.0" standalone="no"?><!DOCTYPE svg PUBLIC "-//W3C//DTD SVG 1.1//EN" "http://www.w3.org/Graphics/SVG/1.1/DTD/svg11.dtd"><svg t="1503593629065" class="icon" style="" viewBox="0 0 1024 1024" version="1.1" xmlns="http://www.w3.org/2000/svg" p-id="1682" xmlns:xlink="http://www.w3.org/1999/xlink" width="200" height="200"><defs><style type="text/css"></style></defs><path d="M474.33173 564.818341c0.002406-49.489753-40.113886-89.606045-89.601233-89.603639-49.482535 0-89.601233 40.118698-89.598827 89.603639v459.181659c98.967475 0 179.20006-80.232585 179.20006-179.20006V564.818341z" fill="#E94F3D" p-id="1683"></path><path d="M416.654636 531.166753c0.002406-33.562569-27.203725-60.766295-60.761483-60.763888-33.557757 0-60.761483 27.206131-60.761483 60.763888v335.640127c67.115515 0 121.522965-54.409857 121.522966-121.522965v-214.117162z" fill="#0075C9" p-id="1684"></path><path d="M515.761654 753.957253h100.045327v41.769158h-100.045327z" fill="#65513C" p-id="1685"></path><path d="M577.908946 742.974233a9.142492 9.142492 0 0 0-8.957236-7.299558h-12.789865a9.142492 9.142492 0 0 0 0 18.284984h3.647373v16.254388a9.142492 9.142492 0 0 0 18.284984 0v-25.39688c0-0.632757-0.06496-1.248672-0.185256-1.842934z" fill="#FFB648" p-id="1686"></path><path d="M559.621556 742.974233a9.142492 9.142492 0 0 0-8.957236-7.299558h-12.789865a9.142492 9.142492 0 0 0 0 18.284984h3.647373v16.254388a9.142492 9.142492 0 0 0 18.284984 0v-25.39688a8.933177 8.933177 0 0 0-0.185256-1.842934z" fill="#FFB648" p-id="1687"></path><path d="M541.336573 742.974233a9.142492 9.142492 0 0 0-8.957237-7.299558h-24.554808a9.142492 9.142492 0 0 0 0 18.284984h15.412316v16.254388a9.142492 9.142492 0 1 0 18.284984 0v-25.39688a8.933177 8.933177 0 0 0-0.185255-1.842934z" fill="#FFB648" p-id="1688"></path><path d="M468.947284 252.498786c-95.996166 0-173.815614 77.819448-173.815614 173.815614v158.641483c0 95.996166 77.819448 173.815614 173.815614 173.815613s173.815614-77.819448 173.815613-173.815613v-158.641483c0-95.996166-77.819448-173.815614-173.815613-173.815614z" fill="#E94F3D" p-id="1689"></path><path d="M694.615262 127.198528c0 67.334453-54.585489 121.919942-121.922348 121.919942-67.334453 0-121.919942-54.585489-121.919942-121.919942h243.84229z" fill="#333E48" p-id="1690"></path><path d="M535.187044 10.521084c-77.963803 0-145.168337 46.020417-175.961694 112.373255h220.278721c60.595474 0 114.531365 28.365784 149.366665 72.504773-4.713195-102.898747-89.62048-184.878029-193.683692-184.878028z" fill="#FADF8D" p-id="1691"></path><path d="M548.840634 0h-79.592611c-87.914684 0-159.185221 71.270537-159.18522 159.185221s71.270537 159.185221 159.18522 159.18522 159.185221-71.270537 159.185221-159.18522V79.595016C628.430838 35.634065 592.796773 0 548.840634 0z" fill="#E94F3D" p-id="1692"></path><path d="M549.711576 75.264362c-13.292702-13.290296-31.654675-21.511321-51.934166-21.511321-40.561387 0-73.445487 32.881694-73.445487 73.445487 0 20.281897 8.221025 38.64387 21.511321 51.934166l112.188 112.188c42.462063-28.587129 70.399594-77.097672 70.399594-132.137879v-5.199191l-78.719262-78.719262z" fill="#FFFFFF" p-id="1693"></path><path d="M497.77741 127.200934m-13.95433 0a13.95433 13.95433 0 1 0 27.90866 0 13.95433 13.95433 0 1 0-27.90866 0Z" fill="#333E48" p-id="1694"></path><path d="M420.927548 753.957253h97.439716v41.769158h-97.439716z" fill="#65513C" p-id="1695"></path><path d="M510.261724 742.974233a9.142492 9.142492 0 0 0-8.957237-7.299558h-12.789865a9.142492 9.142492 0 0 0 0 18.284984h3.647373v16.254388a9.142492 9.142492 0 0 0 18.284984 0v-25.39688a8.933177 8.933177 0 0 0-0.185255-1.842934z" fill="#FFB648" p-id="1696"></path><path d="M491.97674 742.974233a9.142492 9.142492 0 0 0-8.957237-7.299558h-12.789865a9.142492 9.142492 0 0 0 0 18.284984h3.647373v16.254388a9.142492 9.142492 0 0 0 18.284984 0v-25.39688c0-0.632757-0.062554-1.248672-0.185255-1.842934z" fill="#FFB648" p-id="1697"></path><path d="M473.691756 742.974233a9.142492 9.142492 0 0 0-8.957236-7.299558h-12.78746a9.142492 9.142492 0 0 0 0 18.284984h3.647373v16.254388a9.142492 9.142492 0 1 0 18.284984 0v-25.39688a9.460073 9.460073 0 0 0-0.187661-1.842934z" fill="#FFB648" p-id="1698"></path><path d="M498.441444 415.793317c0.002406-43.871932-35.559482-79.43382-79.429008-79.431414-43.864714 0-79.429008 35.564294-79.426602 79.431414l-0.002406 351.533627c87.731834 0 158.85561-71.123776 158.85561-158.855609l0.002406-192.678018z" fill="#0075C9" p-id="1699"></path><path d="M498.441444 415.793317c0.002406-43.871932-35.559482-79.43382-79.429008-79.431414-43.864714 0-79.429008 35.564294-79.426602 79.431414l-0.002406 273.079017c87.731834 0 158.85561-71.123776 158.85561-158.85561l0.002406-114.223407z" fill="#00B070" p-id="1700"></path><path d="M498.441444 415.793317c0.002406-43.871932-35.559482-79.43382-79.429008-79.431414-43.864714 0-79.429008 35.564294-79.426602 79.431414l-0.002406 222.68945c87.731834 0 158.85561-71.123776 158.85561-158.855609l0.002406-63.833841z" fill="#FFB648" p-id="1701"></path><path d="M498.441444 415.793317c0.002406-43.871932-35.559482-79.43382-79.429008-79.431414-43.864714 0-79.429008 35.564294-79.426602 79.431414l-0.002406 188.212632c87.731834 0 158.85561-71.12137 158.85561-158.853204l0.002406-29.359428z" fill="#A3382A" p-id="1702"></path></svg>