<?xml version="1.0" standalone="no"?><!DOCTYPE svg PUBLIC "-//W3C//DTD SVG 1.1//EN" "http://www.w3.org/Graphics/SVG/1.1/DTD/svg11.dtd"><svg t="1503593656929" class="icon" style="" viewBox="0 0 1024 1024" version="1.1" xmlns="http://www.w3.org/2000/svg" p-id="2245" xmlns:xlink="http://www.w3.org/1999/xlink" width="200" height="200"><defs><style type="text/css"></style></defs><path d="M0.012338 362.212878c46.352193-46.357129 121.50424-46.357129 167.863836-0.007403l69.57024 69.572707a59.075357 59.075357 0 0 1 14.86261 24.856561c6.077803 20.24207 1.127713 43.08997-14.86261 59.077825l-69.575175 69.575175c-46.349726 46.354661-121.50424 46.354661-167.858901 0l111.537433-111.534965L0.012338 362.212878z" fill="#7D868C" p-id="2246"></path><path d="M200.626723 421.001988c-24.333421 0-44.059754 19.7288-44.059753 44.062221 0 1.722414 0.101173 3.427555 0.293649 5.098149 23.765863 160.882876 162.420217 284.346424 329.91144 284.346425h207.03519c167.491222 0 306.145576-123.463548 329.91144-284.346425a44.614973 44.614973 0 0 0 0.291182-5.098149c0-24.333421-19.726333-44.062221-44.057286-44.062221H200.626723z" fill="#7D868C" p-id="2247"></path><path d="M461.834066 476.213017m-26.319873 0a26.319873 26.319873 0 1 0 52.639745 0 26.319873 26.319873 0 1 0-52.639745 0Z" fill="#5F7585" p-id="2248"></path><path d="M379.449359 502.53289m-26.319873 0a26.319873 26.319873 0 1 0 52.639746 0 26.319873 26.319873 0 1 0-52.639746 0Z" fill="#5F7585" p-id="2249"></path><path d="M308.361519 458.813671m-18.916946 0a18.916946 18.916946 0 1 0 37.833892 0 18.916946 18.916946 0 1 0-37.833892 0Z" fill="#5F7585" p-id="2250"></path><path d="M1018.988218 444.674081a43.845069 43.845069 0 0 1 5.02412 20.392596c0 1.722414-0.098706 3.427555-0.291182 5.098149-23.768331 160.882876-162.420217 284.346424-329.911439 284.346424h-3.965501c17.359864-169.388839 156.966728-302.537883 329.144002-309.837169z" fill="#5F7585" p-id="2251"></path><path d="M521.050078 686.544978c24.609797 0 44.560685 19.950888 44.560685 44.563152s-19.950888 44.563153-44.560685 44.560685H388.147798c0.002468-49.217126 39.901776-89.116435 89.118903-89.12137h43.783377v-0.002467z" fill="#5C6670" p-id="2252"></path><path d="M664.054886 645.572245m-20.644296 0a20.644296 20.644296 0 1 0 41.288591 0 20.644296 20.644296 0 1 0-41.288591 0Z" fill="#333E48" p-id="2253"></path><path d="M568.673107 248.333652c23.849763 0 44.99499 11.733639 58.014271 29.720284 13.014346-17.986645 34.164508-29.720284 58.011803-29.720284 39.472407 0 71.586304 32.113897 71.586304 71.583836a13.572033 13.572033 0 0 1-27.144065 0c0-24.503688-19.936082-44.43977-44.442239-44.43977-24.503688 0-44.43977 19.936082-44.43977 44.43977v54.288131a13.572033 13.572033 0 0 1-27.144066 0v-54.288131c0-24.503688-19.936082-44.43977-44.442238-44.43977-24.503688 0-44.43977 19.936082-44.43977 44.43977a13.572033 13.572033 0 0 1-27.144066 0c0-39.469939 32.113897-71.583836 71.583836-71.583836z" fill="#0075C9" p-id="2254"></path></svg>