<?xml version="1.0" standalone="no"?><!DOCTYPE svg PUBLIC "-//W3C//DTD SVG 1.1//EN" "http://www.w3.org/Graphics/SVG/1.1/DTD/svg11.dtd"><svg t="1503567294442" class="icon" style="" viewBox="0 0 1024 1024" version="1.1" xmlns="http://www.w3.org/2000/svg" p-id="1968" xmlns:xlink="http://www.w3.org/1999/xlink" width="200" height="200"><defs><style type="text/css"></style></defs><path d="M403.244798 665.707302m-124.967988 0a124.967988 124.967988 0 1 0 249.935976 0 124.967988 124.967988 0 1 0-249.935976 0Z" fill="#333E48" p-id="1969"></path><path d="M403.244798 665.707302m-93.196974 0a93.196974 93.196974 0 1 0 186.393948 0 93.196974 93.196974 0 1 0-186.393948 0Z" fill="#D68512" p-id="1970"></path><path d="M403.244798 375.91578m-124.967988 0a124.967988 124.967988 0 1 0 249.935976 0 124.967988 124.967988 0 1 0-249.935976 0Z" fill="#333E48" p-id="1971"></path><path d="M403.244798 375.91578m-93.196974 0a93.196974 93.196974 0 1 0 186.393948 0 93.196974 93.196974 0 1 0-186.393948 0Z" fill="#D68512" p-id="1972"></path><path d="M331.268473 607.014495c-18.370077-18.370077-43.745416-29.729895-71.77646-29.729895-56.062087 0-101.508853 45.444267-101.508852 101.506354v0.007495C70.732166 678.798449 0 608.066283 0 520.810292c-0.002498-87.248497 70.734664-157.978164 157.980662-157.978164 0 56.062087 45.446766 101.508853 101.508853 101.508852 28.031043 0 53.408881-11.364814 71.77646-29.732393v172.405908h0.002498z" fill="#333E48" p-id="1973"></path><path d="M259.489515 464.34098c-44.290048 0-81.929594-28.373312-95.795216-67.926563h-5.716135c-68.70104 0-124.395875 55.692337-124.395875 124.395875 0 68.70104 55.694835 124.395875 124.395875 124.395875h5.716135c13.865623-39.553251 51.507667-67.924065 95.795216-67.924065 28.031043 0 53.408881 11.362316 71.77646 29.729894V434.606089c-18.367579 18.372575-43.745416 29.734891-71.77646 29.734891z" fill="#D68512" p-id="1974"></path><path d="M259.489515 464.34098a101.011689 101.011689 0 0 1-64.406444-23.084388c11.841992 23.993774 18.522474 50.988018 18.522474 79.5537s-6.682981 55.562425-18.524972 79.556198a101.02418 101.02418 0 0 1 64.408942-23.084388c28.031043 0 53.408881 11.362316 71.77646 29.729894V434.606089c-18.367579 18.372575-43.745416 29.734891-71.77646 29.734891zM587.580137 503.67438v-225.542472c0-33.959534 27.628815-61.58835 61.58835-61.58835 141.799106 0 257.163588 115.364483 257.163588 257.163588v29.967234H587.580137z" fill="#333E48" p-id="1975"></path><path d="M876.364841 473.707146c0-125.477643-101.718711-227.196354-227.193856-227.196354-17.465688 0-31.618617 14.155427-31.618617 31.621116v195.575238h258.812473z" fill="#D68512" p-id="1976"></path><path d="M587.580137 520.32562v225.542472c0 33.959534 27.628815 61.58835 61.58835 61.58835 141.799106 0 257.163588-115.364483 257.163588-257.163588v-29.967234H587.580137z" fill="#333E48" p-id="1977"></path><path d="M876.364841 550.292854c0 125.477643-101.718711 227.193856-227.193856 227.193855-17.465688 0-31.618617-14.155427-31.618617-31.621115v-195.575239l258.812473 0.002499z" fill="#D68512" p-id="1978"></path><path d="M814.60161 311.411902H433.906562c-115.644293 0-209.403387 93.751599-209.403387 209.400888 0 115.651788 93.754097 209.405885 209.403387 209.405885h380.695048c115.646792 0 209.403387-93.754097 209.39839-209.405885 0.004997-115.64929-93.751599-209.400889-209.39839-209.400888z" fill="#FF9E16" p-id="1979"></path><path d="M587.580137 311.411902h29.969733v419.111567h-29.969733z" fill="#333E48" p-id="1980"></path><path d="M278.354257 380.372765a209.8281 209.8281 0 0 0-53.851082 140.442523c0 53.833594 20.333749 102.910405 53.716174 140.010316l0.134908-280.452839zM509.482952 311.411902h78.099684v418.806773h-78.099684z" fill="#E8E8E8" p-id="1981"></path><path d="M278.354257 380.372765l-0.134908 280.452839a210.47766 210.47766 0 0 0 35.383571 31.338806l0.342268-343.008034c-12.941248 9.106342-25.033071 19.481825-35.590931 31.216389zM470.511807 311.411902l-0.11742 418.924194 39.905513-0.124916V311.411902z" fill="#333E48" p-id="1982"></path><path d="M867.098608 466.699385m-23.209305 0a23.209304 23.209304 0 1 0 46.418609 0 23.209304 23.209304 0 1 0-46.418609 0Z" fill="#333E48" p-id="1983"></path><path d="M791.632143 520.81279c0-76.68564 25.815042-147.507745 68.948373-204.336813-14.667581-3.600065-30.23955-5.064075-45.981405-5.064075h-48.729545c-35.588433 61.69078-55.967151 133.209914-55.967151 209.400888 0 76.193473 20.381217 147.712606 55.969649 209.405885h48.727047c15.741854 0 31.061494-1.796285 45.809021-5.08656-43.135829-56.831567-68.775989-127.631187-68.775989-204.319325z" fill="#333E48" p-id="1984"></path><path d="M764.390566 520.81279c0-77.552554 24.276083-149.531376 65.593141-208.778809a211.636876 211.636876 0 0 0-15.382097-0.624578h-16.893576c-38.336574 60.666473-60.561544 132.485404-60.561544 209.400889 0 76.920481 22.227468 148.736914 60.564043 209.405885h16.891077c5.178998 0 10.300534-0.257326 15.384596-0.624578-41.319557-59.247433-65.59564-131.226256-65.59564-208.778809z" fill="#E8E8E8" p-id="1985"></path><path d="M569.677245 403.569578c-55.285112 55.285112-55.285112 144.921994 0 200.209605l100.104802-100.107301-100.104802-100.102304z" fill="#333E48" p-id="1986"></path><path d="M587.040502 420.930338c-21.17568 21.17568-34.271823 50.428397-34.271823 82.741544s13.096143 61.568363 34.274322 82.744043l82.741544-82.744043-82.744043-82.741544z" fill="#D68512" p-id="1987"></path></svg>