<?xml version="1.0" standalone="no"?><!DOCTYPE svg PUBLIC "-//W3C//DTD SVG 1.1//EN" "http://www.w3.org/Graphics/SVG/1.1/DTD/svg11.dtd"><svg t="1503567310562" class="icon" style="" viewBox="0 0 1024 1024" version="1.1" xmlns="http://www.w3.org/2000/svg" p-id="2675" xmlns:xlink="http://www.w3.org/1999/xlink" width="200" height="200"><defs><style type="text/css"></style></defs><path d="M617.058331 471.787922v73.390528c0 70.741828 50.472305 129.682368 117.366548 142.827015l-2.813451 194.929095h83.313647l32.892035-203.873842v-207.270262H617.058331v-0.002534z" fill="#A4A9AD" p-id="2676"></path><path d="M758.06294 693.216687c-8.997975 0-17.25837 3.094797-23.830694 8.242652l-0.871916 60.276296a38.554423 38.554423 0 0 0 24.705145 8.916867c21.382231 0 38.719175-17.336944 38.719175-38.71664-0.002535-21.3873-17.339479-38.719175-38.72171-38.719175zM782.793432 623.818219c0 35.381053 28.276454 64.103603 63.45727 64.940035l1.566408-9.697536v-120.266177c-35.910793-0.002535-65.023678 29.112886-65.023678 65.023678zM732.169049 844.21792l-0.557621 38.71664h83.313647l6.245355-38.71664z" fill="#333E48" p-id="2677"></path><path d="M351.932357 882.93456h-79.004758L248.090653 579.474676h128.67865z" fill="#A4A9AD" p-id="2678"></path><path d="M260.523067 731.360498l7.233865 88.365187c19.785407-4.689086 34.519275-22.416364 34.519275-43.633844-0.002535-23.731843-18.431909-43.111707-41.75314-44.731343zM269.759298 844.21792l3.168301 38.71664h79.004758l3.168301-38.71664z" fill="#333E48" p-id="2679"></path><path d="M717.280568 589.514389m-136.226811 0a136.226811 136.226811 0 1 0 272.453622 0 136.226811 136.226811 0 1 0-272.453622 0Z" fill="#FF9C9F" p-id="2680"></path><path d="M640.316196 705.030648c0 7.028559-5.700407 12.726432-12.731501 12.726432s-12.731501-5.697873-12.731501-12.726432v-54.930738a12.734036 12.734036 0 0 1 25.463002 0v54.930738zM687.949703 735.851882a12.731501 12.731501 0 0 1-25.463002 0v-54.930738a12.734036 12.734036 0 0 1 25.463002 0v54.930738zM742.401394 742.599096a12.728967 12.728967 0 0 1-12.731501 12.726432 12.728967 12.728967 0 0 1-12.731502-12.726432v-54.930738a12.734036 12.734036 0 0 1 25.463003 0v54.930738zM794.285494 727.109905a12.734036 12.734036 0 0 1-25.463003 0v-54.930738a12.736571 12.736571 0 0 1 12.731501-12.731501 12.736571 12.736571 0 0 1 12.731502 12.731501v54.930738z" fill="#FF9C9F" p-id="2681"></path><path d="M896.621621 279.854773c-25.604943-20.04394-57.830367-32.030257-92.871778-32.030257H446.768481v-0.00507h-143.861149c-52.603938 0-95.246736 42.647868-95.246736 95.246737v144.375681c0 83.300974 67.527903 150.826342 150.826342 150.826343h0.002535v0.010138h1.176073l20.023663 244.656215h79.004758l20.026198-244.656215h278.767412c20.976688 25.174054 50.287276 43.1624 83.698912 49.72712l-2.813451 194.929095h83.313647l32.892035-203.873842V398.655927a150.078623 150.078623 0 0 0-20.386117-75.691981c31.37632 19.607982 52.30485 54.441552 52.30485 94.088405v45.638745h27.896258V417.049817c0-69.380726-51.182004-127.038737-117.77209-137.195044z" fill="#DADBDC" p-id="2682"></path><path d="M977.256152 454.321711l5.335419 29.558983a18.135356 18.135356 0 0 0 21.07047 14.627412c7.649546-1.381379 13.306865-7.41129 14.624878-14.627412l5.33542-29.558983c2.309058-12.807541-6.197197-25.059995-19.002203-27.366518-12.805006-2.311593-25.05746 6.192128-27.366518 18.994599a24.117108 24.117108 0 0 0 0.002534 8.371919z" fill="#333E48" p-id="2683"></path><path d="M889.557576 623.818219c0 35.381053 28.273919 64.103603 63.45727 64.940035l1.563874-9.697536v-120.266177c-35.913327-0.002535-65.021143 29.112886-65.021144 65.023678zM838.930659 844.21792l-0.557621 38.71664h83.311112l6.24789-38.71664z" fill="#333E48" p-id="2684"></path><path d="M397.066708 688.836828h-33.264628l5.320211 64.980589h27.944417c17.942723 0 32.486493-14.548839 32.486492-32.489028 0-17.947792-14.54377-32.491562-32.486492-32.491561zM376.520908 844.21792l3.168301 38.71664h79.002223l3.170836-38.71664z" fill="#333E48" p-id="2685"></path><path d="M383.582418 366.318979c0 51.455745-41.712586 93.168331-93.165796 93.16833H122.248266C54.730501 459.487309 0 404.749204 0 337.233974c0-42.064901 21.252964-79.161905 53.605121-101.157519v-0.005069l0.116593-0.078574c0.101386-0.068435 0.200237-0.139405 0.299088-0.202771l113.43532-77.364845 0.007603 0.010138a99.621527 99.621527 0 0 1 56.362811-17.367359h102.090266c31.855367 0 57.675754 25.822922 57.675754 57.678289 0 0.088712-0.012673 0.167286-0.012673 0.258533v167.314182h0.002535z" fill="#DADBDC" p-id="2686"></path><path d="M282.576977 406.759174c-37.375815 0-69.720368 21.465874-85.44021 52.728135h93.279855c23.496121 0 44.946787-8.721699 61.335775-23.07537-17.410448-18.257019-41.953376-29.652764-69.17542-29.652765z" fill="#333E48" p-id="2687"></path><path d="M233.283281 351.179568m-25.622685 0a25.622685 25.622685 0 1 0 51.24537 0 25.622685 25.622685 0 1 0-51.24537 0Z" fill="#333E48" p-id="2688"></path><path d="M223.82907 141.067975c-0.334573 0-0.661541 0.035485-0.996114 0.040554 8.455562 13.172529 23.199568 21.924644 40.016911 21.924644 16.83255 0 31.586695-8.772392 40.039723-21.965198H223.82907zM77.790664 219.575943l-23.769862 16.211563c-0.098851 0.063366-0.200237 0.134336-0.299088 0.202771l-0.116593 0.078574v0.005069a122.729848 122.729848 0 0 0-42.787274 50.89559c8.650729 8.990371 20.776452 14.599532 34.235395 14.599532 26.263949 0 47.557468-21.290984 47.557468-47.560002 0-13.560329-5.708011-25.769694-14.820046-34.433097z" fill="#333E48" p-id="2689"></path><path d="M43.785922 243.55618C17.040391 265.977614 0 299.604695 0 337.233974c0 63.168321 47.909783 115.138598 109.37229 121.568982a209.911357 209.911357 0 0 0 7.621665-56.025702c0-63.695526-28.41079-120.719878-73.208033-159.221074z" fill="#FF9C9F" p-id="2690"></path><path d="M45.053242 327.718932m-16.401661 0a16.401661 16.401661 0 1 0 32.803323 0 16.401661 16.401661 0 1 0-32.803323 0Z" fill="#65513C" p-id="2691"></path><path d="M199.777862 226.835154m-15.768001 0a15.768001 15.768001 0 1 0 31.536003 0 15.768001 15.768001 0 1 0-31.536003 0Z" fill="#333E48" p-id="2692"></path><path d="M332.428295 215.99196l10.493413 54.945946c3.426835 17.960466-8.351642 35.302479-26.312107 38.726779-17.963 3.431904-35.299944-8.351642-38.729313-26.312108a33.56625 33.56625 0 0 1 0-12.414671l10.488344-54.945946c2.324266-12.163742 14.069792-20.142791 26.238603-17.826129 9.27932 1.776783 16.12792 9.084153 17.82106 17.826129z" fill="#333E48" p-id="2693"></path><path d="M305.627002 187.226321a10.346404 10.346404 0 1 1 0-20.692809 7.730655 7.730655 0 0 0 7.723051-7.723051 10.348939 10.348939 0 1 1 20.695343 0c0.002535 15.666616-12.749244 28.415859-28.418394 28.41586z" fill="#9C7F4D" p-id="2694"></path><path d="M679.215331 247.824516h-194.376543a107.739981 107.739981 0 0 0-11.033292 47.618299c0 59.771902 48.452196 108.221563 108.219029 108.221563 59.769367 0 108.219029-48.449661 108.219028-108.221563a107.737447 107.737447 0 0 0-11.028222-47.618299z" fill="#333E48" p-id="2695"></path><path d="M711.085906 498.802125m-32.47382 0a32.473819 32.473819 0 1 0 64.947639 0 32.473819 32.473819 0 1 0-64.947639 0Z" fill="#333E48" p-id="2696"></path><path d="M817.322845 248.463245a152.111405 152.111405 0 0 0-13.573002-0.638729h-92.669007a56.410968 56.410968 0 0 0-3.67016 19.919743c0 31.297746 25.37429 56.672036 56.672036 56.672036 31.300281 0 56.672036-25.376825 56.672037-56.672036a56.438849 56.438849 0 0 0-3.431904-19.281014z" fill="#333E48" p-id="2697"></path><path d="M452.555067 546.09092m-74.300464 0a74.300464 74.300464 0 1 0 148.600927 0 74.300464 74.300464 0 1 0-148.600927 0Z" fill="#333E48" p-id="2698"></path><path d="M947.732655 353.615358a92.519463 92.519463 0 0 0-58.177613-20.490037c-51.326479 0-92.932609 41.608665-92.932609 92.935144s41.606131 92.930075 92.932609 92.930075c25.318528 0 48.259563-10.133494 65.021143-26.560503v-93.776644c0-15.691962-2.400305-30.816164-6.84353-45.038035z" fill="#333E48" p-id="2699"></path></svg>