<?xml version="1.0" standalone="no"?><!DOCTYPE svg PUBLIC "-//W3C//DTD SVG 1.1//EN" "http://www.w3.org/Graphics/SVG/1.1/DTD/svg11.dtd"><svg t="1503569016832" class="icon" style="" viewBox="0 0 1024 1024" version="1.1" xmlns="http://www.w3.org/2000/svg" p-id="2596" xmlns:xlink="http://www.w3.org/1999/xlink" width="200" height="200"><defs><style type="text/css"></style></defs><path d="M572.25728 248.37632c46.82752 0 104.04864 32.19456 127.96928 72.05888 23.81312 39.86432 5.248 72.05888-41.57952 72.05888s-104.15104-32.29696-127.96928-72.05888c-23.92064-39.86432-5.25312-72.05888 41.57952-72.05888zM603.34592 638.23872c-10.10176 17.5616-34.71872 32.09216-54.71232 32.38912-20.08064 0.3072-28.15488-13.6192-18.05824-31.18592 10.19392-17.55648 34.62144-32.09216 54.70208-32.39424 20.07552-0.29696 28.15488 13.73184 18.06848 31.19104zM507.16672 804.85888c-10.19904 17.56672-34.71872 32.1024-54.80448 32.39936-20.09088 0.30208-28.16-13.62944-17.9712-31.19104 10.09664-17.55648 34.62144-32.09216 54.7072-32.38912 20.18304-0.40448 28.25728 13.62432 18.06848 31.1808zM650.97728 719.47776c-9.69216 16.75776-33.00352 30.47936-52.08064 30.88896-19.17952 0.30208-26.84416-13.0304-17.152-29.6704 9.68192-16.75776 32.98816-30.592 52.16768-30.88896 19.07712-0.40448 26.74176 12.91776 17.06496 29.6704zM794.38336 634.60352c-9.69216 16.75264-33.00864 30.47936-52.1728 30.88384-19.1744 0.30208-26.84416-13.02016-17.16736-29.6704 9.69728-16.75776 33.00864-30.47936 52.08064-30.88384 19.17952-0.40448 26.95168 12.92288 17.25952 29.6704zM697.70752 801.73056c-10.10176 17.57184-34.62144 32-54.71232 32.39936-20.08064 0.3072-28.14976-13.62944-18.05824-31.18592 10.19904-17.55648 34.7136-32.09216 54.70208-32.39424 20.18816-0.39936 28.25728 13.6192 18.06848 31.1808zM175.93344 556.89728c-16.35328-25.12896-19.07712-64.7936-6.06208-88.41216 13.02016-23.61344 36.9408-22.40512 53.39136 2.82624 16.34304 25.12896 19.07712 64.79872 6.06208 88.41216-13.12256 23.61344-37.0432 22.40512-53.39136-2.82624zM339.93728 568.09472c-16.35328-25.22624-19.08224-64.7936-6.06208-88.40704s36.93568-22.4 53.39136 2.82624c16.34304 25.12896 19.072 64.7936 6.05696 88.40704-13.23008 23.61856-37.0432 22.30272-53.38624-2.82624z" p-id="2597"></path><path d="M272.13824 908.87168c-11.55072-6.90688-21.18656-17.01888-26.9312-29.10208L53.88288 507.22304c-10.12736-20.1216-9.59488-43.60704 1.8432-62.71488L240.2304 136.28928c11.6736-19.51232 32.75264-31.23712 55.43936-31.17568l414.36672 0.8448c12.89728 0.14848 25.94304 3.64032 37.09952 10.31168 11.15136 6.67648 20.38272 16.53248 26.60864 27.8272l195.85536 364.97408c10.77248 19.968 10.15296 44.47744-1.28512 63.5904l-184.4992 308.20864c-11.4432 19.13344-31.88736 30.68416-54.40512 31.26272l-418.89792 6.71744a69.69856 69.69856 0 0 1-38.3744-9.97888zM89.19552 475.71456l202.53696 393.69728c0.75776 1.60768 1.60768 2.10432 2.45248 2.6112a5.12 5.12 0 0 0 3.456 0.92672l443.08992-7.20384 194.37056-324.71552-207.08864-386.08896a5.25312 5.25312 0 0 0-2.44224-2.61632c-0.83968-0.50176-1.68448-1.00864-3.46624-0.9216l-438.54336-0.39424-194.36544 324.70528z" p-id="2598"></path><path d="M881.31072 522.77248l-377.87648 5.12512L335.7184 191.04768c-5.60128-11.24864-19.3792-15.77472-30.7712-10.10176-11.392 5.66784-16.08192 19.38944-10.48064 30.63808l166.94784 335.3088-160.07168 269.04576c-6.6048 10.70592-3.16416 24.78592 7.66464 31.46752 10.8288 6.67648 24.96 3.41504 31.55456-7.28576l158.32064-266.09664 0.09728 0.01024 382.94016-5.19168c12.56448-0.1792 22.62016-10.624 22.44608-23.3472-0.16384-12.71296-10.496-22.90176-23.05536-22.72256z" p-id="2599"></path></svg>