<?xml version="1.0" standalone="no"?><!DOCTYPE svg PUBLIC "-//W3C//DTD SVG 1.1//EN" "http://www.w3.org/Graphics/SVG/1.1/DTD/svg11.dtd"><svg t="1503567322048" class="icon" style="" viewBox="0 0 1024 1024" version="1.1" xmlns="http://www.w3.org/2000/svg" p-id="2966" xmlns:xlink="http://www.w3.org/1999/xlink" width="200" height="200"><defs><style type="text/css"></style></defs><path d="M433.133267 653.265145l-15.981551 365.479161c0 2.903765-2.349519 5.253284-5.253284 5.253284h-47.407273a5.253284 5.253284 0 0 1-5.253284-5.253284l-15.98396-365.479161h89.879352z" fill="#ED9900" p-id="2967"></path><path d="M358.26915 996.521469l0.971134 22.225247a5.253284 5.253284 0 0 0 5.253284 5.253284h47.407274a5.253284 5.253284 0 0 0 5.253284-5.253284l0.971135-22.225247h-59.856111z" fill="#333E48" p-id="2968"></path><path d="M718.102236 653.265145l-15.98155 365.479161c0 2.903765-2.349519 5.253284-5.250874 5.253284h-47.409684a5.253284 5.253284 0 0 1-5.253284-5.253284l-15.97914-365.479161h89.874532z" fill="#ED9900" p-id="2969"></path><path d="M643.238119 996.521469l0.971135 22.225247a5.253284 5.253284 0 0 0 5.253284 5.253284h47.409683a5.248464 5.248464 0 0 0 5.250875-5.253284l0.973544-22.225247h-59.858521z" fill="#333E48" p-id="2970"></path><path d="M629.89285 0a12.805482 12.805482 0 0 0-12.807892 12.810302v45.696341h25.618194V12.810302A12.807892 12.807892 0 0 0 629.89285 0zM670.181683 0a12.807892 12.807892 0 0 0-12.807892 12.810302v45.696341h25.618194V12.810302A12.805482 12.805482 0 0 0 670.181683 0z" fill="#65513C" p-id="2971"></path><path d="M209.143357 663.639176a7.749799 7.749799 0 0 1-7.744979-7.747389c0-55.769152 45.371024-101.142586 101.140176-101.142586a7.747389 7.747389 0 1 1 0 15.492368c-47.228951 0-85.647807 38.421266-85.647808 85.650218a7.747389 7.747389 0 0 1-7.747389 7.747389z" fill="#FFB648" p-id="2972"></path><path d="M223.640493 669.49731l-3.335112 18.478065a11.337936 11.337936 0 0 1-13.174176 9.145052 11.378902 11.378902 0 0 1-9.145052-9.145052l-3.332702-18.478065a14.728473 14.728473 0 1 1 28.987042 0z" fill="#65513C" p-id="2973"></path><path d="M791.460251 86.021321c-28.10025 0-53.523253-11.463244-71.842274-29.972636h-0.012049c-9.294457-11.111419-23.254216-18.186484-38.874301-18.186484-0.351825 0-0.696422 0.045786-1.048247 0.050605v-0.050605h-44.09144c-26.919466 0-48.874819 21.003497-50.518277 47.508484l-0.057835 0.007229-34.869275 436.837073h-164.092832c-72.377241 0-131.050158 58.675327-131.050158 131.047748 0 72.377241 58.672917 131.047748 131.050158 131.047748h214.30748c72.374831 0 131.050158-58.672917 131.050158-131.047748v-131.047748l-22.825278-359.946345h82.87417c21.051692 0 38.122456-17.068354 38.122455-38.124866 0.00241-21.054102-17.068354-38.122456-38.122455-38.122455z" fill="#FFB648" p-id="2974"></path><path d="M344.882915 653.265145l-15.981551 365.479161a5.253284 5.253284 0 0 1-5.253284 5.253284h-47.407273a5.253284 5.253284 0 0 1-5.253284-5.253284l-15.98396-365.479161h89.879352z" fill="#FFB648" p-id="2975"></path><path d="M270.018798 996.521469l0.971135 22.225247a5.253284 5.253284 0 0 0 5.253284 5.253284h47.407273a5.253284 5.253284 0 0 0 5.253284-5.253284l0.971135-22.225247h-59.856111z" fill="#333E48" p-id="2976"></path><path d="M629.851884 653.265145l-15.98155 365.479161c0 2.903765-2.349519 5.253284-5.253284 5.253284H561.209776a5.253284 5.253284 0 0 1-5.255693-5.253284l-15.979141-365.479161h89.876942z" fill="#FFB648" p-id="2977"></path><path d="M554.985358 996.521469l0.968725 22.225247a5.253284 5.253284 0 0 0 5.255693 5.253284h47.407274a5.253284 5.253284 0 0 0 5.253284-5.253284l0.973544-22.225247h-59.85852z" fill="#333E48" p-id="2978"></path><path d="M455.209108 522.217396h-69.152977c-0.554246 0-1.103672 0.033737-1.660327 0.040966-9.357111 9.183608-15.176689 21.957763-15.17669 36.105484 0 27.946025 22.656595 50.605029 50.60744 50.605029s50.605029-22.656595 50.605029-50.605029c0.00241-14.166998-5.838856-26.960432-15.222475-36.14645zM567.451063 340.897166c-0.959086 0-1.891664 0.0988-2.84111 0.142176l-9.957142 124.698022c4.132744 0.850646 8.410074 1.301272 12.798252 1.301272 34.835538 0 63.073145-28.237606 63.073145-63.073145 0-34.828309-28.237606-63.068325-63.073145-63.068325z" fill="#65513C" p-id="2979"></path><path d="M584.914618 621.436991m-63.073145 0a63.073145 63.073145 0 1 0 126.14629 0 63.073145 63.073145 0 1 0-126.14629 0Z" fill="#65513C" p-id="2980"></path><path d="M713.78153 244.13553c-31.365479 3.648382-55.716137 30.271447-55.716137 62.605651 0 34.833129 28.237606 63.070735 63.070735 63.070735 0.20724 0 0.40484-0.026507 0.61208-0.028917l-7.966678-125.647469z" fill="#65513C" p-id="2981"></path><path d="M672.85411 503.628482m-34.396961 0a34.396961 34.396961 0 1 0 68.793923 0 34.396961 34.396961 0 1 0-68.793923 0Z" fill="#65513C" p-id="2982"></path><path d="M688.23081 608.968875c0 23.849427 19.331121 43.180549 43.180549 43.180549v-86.358687c-23.849427 0-43.180549 19.331121-43.180549 43.178138z" fill="#65513C" p-id="2983"></path><path d="M617.318705 230.50109m-28.676183 0a28.676183 28.676183 0 1 0 57.352367 0 28.676183 28.676183 0 1 0-57.352367 0Z" fill="#65513C" p-id="2984"></path><path d="M464.532482 691.074331m-28.673773 0a28.673774 28.673774 0 1 0 57.347547 0 28.673774 28.673774 0 1 0-57.347547 0Z" fill="#65513C" p-id="2985"></path><path d="M340.545341 633.721964m-28.676184 0a28.676183 28.676183 0 1 0 57.352367 0 28.676183 28.676183 0 1 0-57.352367 0Z" fill="#65513C" p-id="2986"></path><path d="M670.186503 87.091256m-12.545228 0a12.545228 12.545228 0 1 0 25.090455 0 12.545228 12.545228 0 1 0-25.090455 0Z" fill="#333E48" p-id="2987"></path><path d="M796.653291 86.416522a114.962578 114.962578 0 0 0-21.425206 66.974552c0 2.992926 0.146996 5.947296 0.371104 8.879977h15.861062c21.051692 0 38.122456-17.068354 38.122455-38.124865 0.00241-19.287746-14.340501-35.189774-32.929415-37.729664z" fill="#ED9900" p-id="2988"></path><path d="M575.699683 80.476455c-13.675407-13.672997-17.041846-30.160598-8.000414-39.199619 9.036612-9.039022 25.524213-5.670173 39.19962 8.005233 13.675407 13.675407 17.041846 30.160598 8.002824 39.20203-9.039022 9.036612-25.524213 5.667763-39.20203-8.007644z" fill="#FFB648" p-id="2989"></path><path d="M583.299248 72.874176a22.634907 11.316248 44.999 1 0 16.003313-16.003872 22.634907 11.316248 44.999 1 0-16.003313 16.003872Z" fill="#ED9900" p-id="2990"></path></svg>