<?xml version="1.0" standalone="no"?><!DOCTYPE svg PUBLIC "-//W3C//DTD SVG 1.1//EN" "http://www.w3.org/Graphics/SVG/1.1/DTD/svg11.dtd"><svg t="1503567215904" class="icon" style="" viewBox="0 0 1024 1024" version="1.1" xmlns="http://www.w3.org/2000/svg" p-id="19976" xmlns:xlink="http://www.w3.org/1999/xlink" width="200" height="200"><defs><style type="text/css"></style></defs><path d="M896.191565 330.758147c3.027495 36.179766-7.239366 68.888322-26.544343 99.129145a73.069474 73.069474 0 0 1-29.838067 26.84129 36.807792 36.807792 0 0 1-43.08464-5.86044c-9.062007-7.932243-18.089883-15.949816-27.162129-23.892298a136.30556 136.30556 0 0 0-58.488346-29.353394c-4.344985-1.068327-8.795779-3.269832-13.052021-2.921687a95.596497 95.596497 0 0 0-19.154797 4.46786 6.532837 6.532837 0 0 0-3.355161 4.225523 11.37956 11.37956 0 0 1-5.723912 7.734278c-10.509198 5.949182-21.656662 11.06896-31.264778 18.212758-22.550916 16.820178-32.138554 39.719239-26.964165 67.239753 3.047975 16.205804 13.92921 26.817398 30.162319 31.827954 5.355288 1.655395 10.53309 3.92175 15.799636 5.884332a12.608307 12.608307 0 0 0 2.675937 0.651918c22.421215 2.133241 44.839017 4.334745 67.284124 6.297327 6.560142 0.566589 13.229507 0.08533 19.796476 0.682637a48.712982 48.712982 0 0 1 9.215601 3.071867 17.24 17.24 0 0 0 4.911573 0.785033c40.616907-0.023892 75.052534 13.789269 102.364845 43.852606 12.089503 13.290944 19.113838 28.650278 18.274194 46.712856a95.5453 95.5453 0 0 1-3.68624 16.492512 102.166879 102.166879 0 0 0-2.785159 13.441124 5.843373 5.843373 0 0 1-3.047975 5.273372 27.858419 27.858419 0 0 0-9.345301 7.928829A142.848637 142.848637 0 0 1 843.420305 703.116198a59.426971 59.426971 0 0 0-4.095822 4.399596c-14.608434 18.888568-35.671201 29.650342-55.129771 42.395177a142.804265 142.804265 0 0 1-17.15467 9.672967 67.99748 67.99748 0 0 1-11.519501 2.856836 22.765947 22.765947 0 0 0-6.778586 2.351685c-11.362494 7.580685-22.598701 15.379814-33.851974 23.137984a30.233997 30.233997 0 0 0-8.532963 6.53625c-5.331396 8.167753-13.908731 11.089439-22.114029 14.772267a7.509008 7.509008 0 0 0-3.29031 2.505278l25.141524-5.802415 0.341318 0.587067-5.024209 3.181089c-25.100566 15.792809-50.108975 31.718732-75.359721 47.299924-15.137477 9.341889-30.606034 18.188865-46.047285 27.035842a126.847623 126.847623 0 0 1-12.550282 5.461096 8.116555 8.116555 0 0 0-2.477973 1.153657c-9.0859 8.758234-20.62588 12.656092-32.558376 14.857596-16.301374 3.007016-32.76658 4.925227-49.184002 7.300804a43.688773 43.688773 0 0 1-9.765123 0.607547 56.658878 56.658878 0 0 1 8.160926-7.212061c10.597941-6.314393 21.414325-12.263575 32.141967-18.366351 8.270148-4.70337 16.629039-9.280451 24.766074-14.222743a33.415085 33.415085 0 0 0 7.461223-7.037989 23.578285 23.578285 0 0 0-15.22622 2.590608 321.842907 321.842907 0 0 1-31.984961 14.031605c-8.7753 3.703306-17.728085 7.037988-26.394163 10.959739-7.041402 3.201568-13.710766 7.253019-20.711209 10.580874a56.795406 56.795406 0 0 1-22.417802 6.058405c-13.055434 0.477846-24.233617 6.730802-35.715572 12.004173q-13.85412 6.338285-27.68776 12.765313l-0.628026-0.945452 16.499338-13.509388a56.225404 56.225404 0 0 0-30.15208 4.662411c-32.797299 15.120411-65.727712 29.957529-98.238303 45.665008-15.072627 7.300804-29.46603 16.014666-43.791169 24.728529a257.221067 257.221067 0 0 0-20.974025 15.598257 8.717276 8.717276 0 0 1-9.556919 1.174136 20.92624 20.92624 0 0 0-12.174832 0.221857c-8.799192 2.440428-17.332156 5.771697-26.018713 8.560269a56.054744 56.054744 0 0 1-11.167943 2.221984c7.788889-6.406549 14.335379-14.052084 23.670441-18.560903 14.741548-7.123318 29.199801-14.861009 43.852607-22.1584 3.839834-1.91821 6.054991-4.136781 4.095822-8.532963-10.922193-0.238923-20.137794 4.706783-29.373873 9.652488l-0.832818-0.805512a19.677014 19.677014 0 0 0 2.194679-1.218507 22.08331 22.08331 0 0 0 2.853423-2.221983 71.984081 71.984081 0 0 1 33.124964-17.065928 326.034299 326.034299 0 0 0 35.503955-13.031542c12.854056-4.921813 25.670568-9.956262 38.910314-14.509451-4.034385 2.679351-7.91859 5.686367-12.174833 7.973201a129.755657 129.755657 0 0 1-15.772329 7.126732 5.396246 5.396246 0 0 0-4.437142 6.577208c8.928893 1.365274 16.806525-2.484799 24.916254-5.095886a37.036475 37.036475 0 0 0 16.915747-11.089439 57.440498 57.440498 0 0 1 12.198725-9.065421c2.348272-1.525694 3.266418-2.983124 1.798749-5.461097a3.570192 3.570192 0 0 1 1.706592-5.553252c2.082043-1.201441 4.013906-2.703243 6.143734-3.812528q14.482146-7.485116 29.0701-14.837117a18.356111 18.356111 0 0 1 15.181849-1.655395 23.588524 23.588524 0 0 0 4.761394 0.979584 27.203088 27.203088 0 0 0 19.796475-3.529234c8.577335-5.273371 18.601861-8.215537 27.926683-12.352318a57.293731 57.293731 0 0 0 11.321537-6.078883 57.559959 57.559959 0 0 0 7.567032-8.345239l-0.85671-1.481322a41.818348 41.818348 0 0 0-9.608117 1.262878c-8.266735 3.071867-16.451554 6.485052-24.503258 10.133748-7.764997 3.484862-15.314963 7.427091-22.707923 11.045068h4.587321l0.129701 0.84647-25.90949 4.839897-0.064851-0.416409c8.799192-4.747741 17.635929-9.475003 26.414642-14.270528 6.01062-3.266418 11.888125-6.795652 17.943116-9.952849a58.607807 58.607807 0 0 0 20.120728-18.147907 8.167753 8.167753 0 0 1 6.93218-3.812528c9.850453-0.501738 19.325456-2.38923 26.872009-9.348715a25.305357 25.305357 0 0 0 3.249352-4.901334 98.617167 98.617167 0 0 0-0.92156-1.395993c-9.280451 1.416472-18.581381 2.638392-27.841353 4.269895a189.994967 189.994967 0 0 0-47.538847 16.31844c-8.358891 3.92175-10.420455 6.45092-13.560586 15.338855-1.423298-0.153593-3.003603-0.194552-4.539536-0.457367-3.754504-0.631439-7.263259-1.068327-9.280451 3.31079a5.645409 5.645409 0 0 1-3.331269 1.983061q-38.910314 12.123635-77.841107 24.117568a14.707416 14.707416 0 0 1-5.92529 0.682637c0.945452-0.720182 1.887492-1.436951 2.809051-2.201504 21.410912-17.035208 42.954939-33.875865 64.082557-51.262632 5.198281-4.269895 9.556919-9.017636 17.065927-8.256496a7.051641 7.051641 0 0 0 3.095759-0.829404 28.257762 28.257762 0 0 1 16.584668-1.283358c16.915747 3.112825 33.589158 2.69983 49.122565-5.949182a11.881298 11.881298 0 0 0 1.023955-0.607547 27.834527 27.834527 0 0 1 16.321853-6.321219c10.420455-0.477846 17.332156-8.386197 23.516848-16.076104a5.952595 5.952595 0 0 0-2.215158-4.556602 15.731372 15.731372 0 0 0-5.880918-1.044435c6.758107-4.075343 13.495735-7.92883 19.987614-12.113395a94.978711 94.978711 0 0 0 12.219204-8.874282 366.480546 366.480546 0 0 1 84.179392-57.385887c8.993744-4.379117 18.977311-6.730802 28.363571-10.413628a111.689667 111.689667 0 0 0 12.748247-6.645473c12.307947-6.795652 24.4623-13.898491 36.944319-20.390369 22.400736-11.676507 45.30321-22.636246 64.894895-38.69187 12.198725-9.980154 23.100439-21.54744 34.30934-32.636879 3.839834-3.754504 1.471083-12.069024-3.792049-15.663108-5.00373-3.413185-10.004046-6.775173-14.830291-10.372671-7.635296-5.706846-16.724609-7.078947-25.75931-8.560269-24.701223-4.054864-49.689153-4.488339-74.632713-5.621516a210.501385 210.501385 0 0 1-49.054301-7.536314 62.119975 62.119975 0 0 1-35.210421-24.574935 55.93187 55.93187 0 0 0-7.263258-7.321283 47.040522 47.040522 0 0 1-11.891538-23.182355c-3.245939-13.092979-2.433601-26.404402-1.273118-39.671454 2.986537-33.920237 19.089946-61.915184 40.019599-88.125035 11.867646-14.857596 26.564822-26.711589 39.992293-39.91379a7.969788 7.969788 0 0 1 1.559826-1.286771c14.895141-8.601227 28.329439-19.540487 44.333866-26.445361a251.705359 251.705359 0 0 1 49.14987-16.724608 135.431785 135.431785 0 0 1 55.8363 0.849883c7.655775 1.614437 15.332029 3.027495 23.032176 4.293787a65.976874 65.976874 0 0 0 32.316039-3.095759c13.864359-4.727262 27.861833-9.15075 41.374634-14.704003a131.455424 131.455424 0 0 0 19.045575-11.809622l0.98641 8.672905 24.08685-20.434742c2.76468 4.249416 5.242653 7.850326 7.526074 11.604831a4.723849 4.723849 0 0 1 0.283294 3.027495 198.108109 198.108109 0 0 0-1.204854 51.69952z m-245.53432 498.188545l23.735291-12.546869c-11.62531 0.781619-22.154987 6.382657-23.735291 12.546869z m11.734531-802.566182a12.16118 12.16118 0 0 0-1.556412 4.075344c-0.525631 11.263512-7.348588 20.066117-11.946149 29.694713-6.887808 14.553823-14.082803 28.977944-21.16175 43.443024-0.262815 0.566589-0.416409 1.198028-0.638266 1.808988l0.969345 0.651919 22.550916-32.329693c-0.064851 8.126795 0.723595 16.23311-3.839833 23.684094-4.034385 6.577208-7.546553 13.465017-11.099679 20.325519a23.752357 23.752357 0 0 0-2.194679 6.799066c-1.249226 7.143797-1.535933 14.441188-4.826244 21.195881a15.499275 15.499275 0 0 0 0.341319 6.884395l1.402819 0.805512a34.814491 34.814491 0 0 0 6.054991-5.512295c4.300614-6.252956 8.051704-12.874535 12.396689-19.113838a17.141017 17.141017 0 0 1 5.802416-3.92175c1.624676-0.914734 3.413185-1.501802 5.802415-2.525757-0.744074 5.83996 0.529044 11.307883-2.959232 16.581255a125.946542 125.946542 0 0 0-15.16137 28.496685c-1.140004 3.331269-3.706719 6.143734-5.177802 9.389673a184.953692 184.953692 0 0 0-8.191645 19.847673c-6.584035 20.960372-17.946529 39.30283-30.408069 57.276665-26.414642 38.149174-46.136027 79.738838-63.423812 122.502638a1194.109749 1194.109749 0 0 0-56.863669 179.226367 569.114538 569.114538 0 0 0-13.779029 82.090523c-0.877189 10.696923-0.08533 21.54744-0.682637 32.264841a140.828031 140.828031 0 0 1-3.047975 24.837751c-3.051388 12.918907-12.550283 19.345935-25.557933 20.868215a94.15272 94.15272 0 0 1-31.701666-2.655458 3.754504 3.754504 0 0 1-2.457493-2.440427 44.14614 44.14614 0 0 0-13.516215-26.185959 246.896181 246.896181 0 0 0-25.206374-22.397323c-10.61842-7.997093-15.884965-17.516468-14.151067-30.76304 0.92156-6.969725 0.880602-14.052084 1.733898-21.045701a101.00981 101.00981 0 0 0-3.993427-38.995644l-14.895141-54.610967a6.754694 6.754694 0 0 1-0.242336-2.67935l13.536694 31.042921 1.863599-0.522217c-0.238923-3.331269-0.194552-6.730802-0.744075-9.99722-3.443904-20.137794-11.123571-39.043428-17.769043-58.280142-7.369067-21.393846-18.91246-40.76026-29.332916-60.672784-3.413185-6.560142-6.317806-13.379687-9.850453-20.025159l2.047912 15.359335-1.140004 0.283294c-1.907971-4.816005-3.860313-9.632009-5.727326-14.468493q-14.052084-36.043238-28.059797-72.110368a36.647372 36.647372 0 0 0-10.748121-16.076104c-1.952342-1.570065-1.600784-5.904811-2.501865-9.826561-0.109222-0.020479-1.337969-0.457367-2.611087-0.805511a24.916254 24.916254 0 0 1-14.806398-9.519375c-2.368751-3.443904-6.758107-5.512294-10.137161-8.324759a4.437141 4.437141 0 0 1-1.90797-2.873902c2.126415-9.215601-1.314076-17.103472-6.078884-24.510084a7.983441 7.983441 0 0 1 0.573415-11.08944c5.525947-6.515771 6.317806-14.748374 6.911701-22.895648a53.525574 53.525574 0 0 0 0.372037-5.577145 9.389673 9.389673 0 0 1 4.061691-8.474939 15.209154 15.209154 0 0 0 6.539663-12.679984 13.014476 13.014476 0 0 1 7.611404-11.437584 6.01062 6.01062 0 0 0 3.413185-6.099363c-0.197965-4.46786-0.040958-8.952785-0.040958-14.676697a73.861333 73.861333 0 0 1 13.819988 4.314266 17.878265 17.878265 0 0 0 22.817144-4.399596c4.017319-5.184629 7.724039-5.075407 13.273878-1.30725a20.22995 20.22995 0 0 0 19.130905 2.788573 19.363001 19.363001 0 0 1 2.730548-0.682637c7.461223-1.365274 8.119968-0.914734 9.522787 6.362177 0.221857 1.153657 0.570002 2.286834 0.945453 3.792049l7.37248-0.416408c2.259529 4.399596 3.413185 9.632009 6.669365 12.441061 10.048418 8.649012 13.209028 19.499528 14.656218 32.025918 2.010366 17.345808 5.594211 34.548263 8.710449 51.788263 6.078883 33.660835 16.407182 66.277235 25.646675 99.149623 8.819671 31.45933 17.857786 62.874289 26.807159 94.31314 0.37545 1.262879 0.85671 2.460907 1.778269 5.099299a32.76658 32.76658 0 0 0 5.222174-6.949245c16.38329-45.272492 32.356998-90.678097 48.900708-135.882325q24.305293-67.120291 50.143107-133.680821c6.229063-15.902031 15.22622-30.742561 23.035588-46.033632a6.891221 6.891221 0 0 1 2.631566-2.856836c8.686557-4.553189 8.710449-4.508818 14.608434-14.052084v8.061944l1.580305 1.023955L594.599087 96.446381l-6.645472 27.100692 0.634853 0.283294 5.880918-8.406675c11.318123-15.861073 23.189182-31.401306 33.84856-47.668548 11.761837-17.953355 22.226664-36.712222 33.69838-54.860129A98.583035 98.583035 0 0 1 673.757684 0l1.023955 0.716769-2.826117 5.884332c-3.184502 6.601101-6.38607 13.178309-9.556919 19.796475z m-40.190258 86.31946l-10.580875 21.482589 0.918147 0.433474 10.836864-21.352888a18.216171 18.216171 0 0 0-1.160483-0.566589z" fill="#eb7d4e" p-id="19977"></path></svg>